<?xml version="1.0" encoding="utf-8"?>
<!-- Svg Vector Icons : http://www.onlinewebfonts.com/icon -->
<!DOCTYPE svg PUBLIC "-//W3C//DTD SVG 1.1//EN" "http://www.w3.org/Graphics/SVG/1.1/DTD/svg11.dtd">
<svg version="1.1" xmlns="http://www.w3.org/2000/svg" xmlns:xlink="http://www.w3.org/1999/xlink"
    x="0px" y="0px" viewBox="0 0 1000 1000" enable-background="new 0 0 1000 1000"
    xml:space="preserve"
    fill="#ec4899"
>
<g>
  <path d="M946,584.8c-9.7-37.9-32.3-65.7-66.7-83.9c-13.3-7-27.1-12.8-40.5-19.5c-6.3-3.1-12.1-7-18.1-10.6c-1.3-0.8-2.3-2-4.2-3.6c29.2-4,54.7-14.7,77.5-32.1c-1.5,0.7-3.1,1.4-4.6,2.2c-18.8,9.1-37.8,17.8-58.7,21.1c-5.1,0.8-10.4,0.8-15.6,1.5c-4.7,0.6-7.1-1.6-8.9-5.7c-6.8-15-5.6-30.2-1.2-45.4c1.7-5.9,4.1-11.7,6.4-17.5c28.9-73.2,4.4-145.2-63-185.7c-16.6-10-34.1-17.8-52.6-23.6c-20.5-6.4-37.3-18-50.5-34.7c-10.7-13.5-20.8-27.6-30.7-41.8c-35.8-51.4-84.7-81.7-146.2-92c-8.5-1.4-17.1-2.3-25.6-3.4c-12.4,0-24.8,0-37.2,0c-1.3,0.3-2.5,0.7-3.8,0.8C366.2,13.3,332,21.4,299,34.5c-36.8,14.7-70.5,34.3-97.9,63.3c-15.6,16.5-27.6,35.2-32.4,57.8c-2.6,12.4-2.6,24.7,1,38c1.9-6,3.3-11.1,5-15.9c14.6-40.8,43.3-68.8,81.3-88.1c37.1-18.9,76.9-26.7,118.2-27.3c29.6-0.4,58.7,3.2,86.8,12.8c31.2,10.7,57.2,29.7,80.7,52.4c18.9,18.3,37.7,36.7,56.5,55.1c0.1,0.1,0,0.5,0,0.6c-11.3-5.3-22.5-11-34.1-15.7c-28.4-11.6-55.1-25.9-80.2-43.7c-42.2-29.9-89.5-43.3-141.3-40.1c-28.3,1.7-55.8,8.2-83.2,15c-14.9,3.7-26.7,12.5-39.9,19.7c1.3,2.6,2.3,4.8,3.5,6.9c8.4,14.7,20.7,25.6,34.9,34.4c37.3,23,78.8,33.7,121.8,38.4c27.2,3,54.7,3.6,82,6.2c36,3.5,71.5,9.9,105.5,22.5c22.5,8.3,43.7,19.1,60.5,37c3.7,3.9,6.8,8.4,10.2,12.6c-7.9-3.2-15-7.1-22.4-10.3c-33.7-14.7-69.4-21.7-105.3-27.4c-28.2-4.5-56.5-8.2-84.7-13c-26.4-4.5-52.5-10.3-78.8-15c-22.3-4-44.8-7.4-66.3-15c-31-10.9-54.4-30-66-61.6c-0.2-0.5-0.7-0.9-1.3-1.6c-4.4,6.1-8.2,12.2-12.8,17.7c-3.9,4.7-4.6,9.6-4,15.4c2.6,23.6,14.7,41.9,31.7,57.4c18.5,17,40.2,29,63.3,38.5c36.5,14.9,74.2,24.9,114,25.2c18,0.2,35.9,0.4,53.9,1.1c29.1,1.1,58,3.8,86.2,11.7c51.4,14.4,87.7,45.4,103.8,97.2c5.9,19,9.7,38.6,14.2,58c3.4,14.9,4.9,30.3,12.1,44.2c12.1,23.2,30.4,40.2,52.6,53.3c5.7,3.4,11.6,6.3,18.4,9.9c-21.9-4.5-39.9-13.9-54.5-29.6c-15.7-16.8-25.9-36.8-33.3-58.2c-7.4-21.6-13.6-43.6-21.9-64.9c-19.3-49.6-53.7-82.6-106.9-93.9c-26.6-5.7-53.7-7.3-80.7-9.2c-27.2-2-54.6-2.9-81.4-7.1c-78.1-12.2-138.5-52.3-181.3-118.9c-0.5-0.8-1.2-1.6-2.5-3.2c0.4,2.5,0.5,3.7,0.8,5c4,19.1,13.6,35.3,26.6,49.5c30.6,33.7,68.1,56.5,111.8,69.1c36.5,10.5,74,13.8,111.8,15.7c29.7,1.5,59.3,3.4,88.6,8.7c45.4,8.2,79.9,31.5,102.1,72.3c0.6,1.2,1.1,2.4,1.7,3.7c-1.1-0.3-1.6-0.9-2.1-1.6c-21-30.1-49.2-50.2-84.7-59.4c-32.3-8.4-65.5-9.2-98.7-9.6c-24.5-0.3-49,0.3-73.5-0.5c-18-0.6-36.1-3.2-52-12.2c-21.9-12.3-43.8-24.9-64.4-39.2c-32.6-22.6-57.6-51.9-72.2-89.3c-0.2-0.5-0.6-0.9-1.6-2.3c-0.4,9.4-1.9,17.8-0.9,25.9c2.6,20.8,12.2,38.8,24.7,55.2c22,29,50.8,49.5,82.4,66.6c2.6,1.4,5.4,2.5,7.6,4.4c18.4,16,39.7,27.4,61.4,38.1c4.2,2.1,8.6,4.4,11.8,7.7c8.5,8.8,17.6,17.3,24.2,27.4c24.5,38,33.1,79.6,25.9,124.5c-3.1,19.3-5.1,38.9-2.6,58.5c3.1,24,13.3,43.6,34.9,55.8c3.2,1.8,4.2,3.4,3.8,7.1c-2.7,27.8,3.2,53,23.3,73.5c22.5,22.9,50.1,34.7,82.1,34.8c42,0.2,68.1-25.8,67.6-66.3c-0.2-18.9-20.6-37.9-39.4-36.8c-10,0.6-16.3,8.2-14.2,17.7c0.5-1,0.9-1.9,1.3-2.7c1.8-3.5,3.7-7.4,8.4-7.2c4.7,0.2,6.9,4.1,8.3,8c2.8,7.6,3.3,15.4,0,23c-8.4,19.4-24.4,28.8-44.5,31.5c-19.8,2.7-33.5-6.9-43.4-23.1c-9-14.7-11.1-31.1-11.2-48c0-4,1-5.9,5.3-7c11.3-2.8,21.5-8.3,30.7-15.5c-11.2,4.9-22.5,9.1-36.2,9.5c2.8-14.2,4.6-27.8,8.2-40.9c6.8-24.3,15-48.3,22-72.5c14.1-48.6,5.7-92-31.1-128.5c-3-3-6.1-5.8-9.2-8.6c1.5-0.3,2.7-0.1,3.8,0.4c11.6,5.6,23.3,11.1,34.7,17c1.9,1,3.7,3.7,4.1,5.9c3,14,5.3,28.2,8.3,42.3c8.4,39.2,19.9,77.4,39.1,112.9c16.9,31.4,36.9,60.3,67.8,79.7c16.4,10.3,33.1,20.3,50.2,29.4c23.2,12.3,47.2,23.1,70.3,35.6c24.9,13.4,37,39.9,32.7,67.8c-4.1,27-17.2,49.3-37.2,67.3c-31.3,28.2-63.4,55.4-95.4,82.9c-3,2.6-3.5,4.8-2.6,8.4c4.5,17.2,15.4,28.9,31.4,35.8c6.4,2.7,13.3,4.1,20,6.1c6.9,0,13.7,0,20.6,0c10.5-2.9,21-5.8,31.4-8.9c3.2-1,6.2-2.8,10.1-4.6c-4.2-1.5-7.5-2.7-10.7-4c-19.2-8-25.5-21.8-18.5-41.4c5.9-16.6,16.6-30.2,27.5-43.7c11-13.7,22.1-27.4,32.7-41.5c4.5-6.1,8-13.1,11.4-19.9c1.6-3.1,3.2-4,6.7-4c34.2,0.4,62.7-11.8,84.7-38.4c11.6-14,15.9-31,18.7-48.2c1.8-11,1-22.4,1.6-33.5c0.1-1.5,0.5-3.3,1.4-4.4c14.9-18.4,23.2-39.5,25.8-62.9c0.1-1.1,0.6-2.2,0.8-3.3c0-7.8,0-15.7,0-23.5C948.9,600.1,947.9,592.4,946,584.8z M483,494.2c0.4,19.8-2.2,39.1-7.1,58.1c-7.9,30.3-16.3,60.4-24.6,90.9c-7.9-3.1-14.2-9-18.5-17.3c-5.6-11.1-8-23-9.8-35.2c-3.2-21.7-1.1-43.2,2.3-64.8c4.2-26.8,4.6-53.7-3-80.1c-5.2-18.1-14.4-33.8-27.8-47.2c-1.2-1.2-2.3-2.3-3.4-3.5c-0.1-0.1-0.1-0.3-0.7-1.4c22.6,10.7,44.2,21.2,62.6,37C472.6,447.4,482.5,468.4,483,494.2z M629.5,207c-0.8-0.8-1.7-1.5-2-3.1c10.7,5.7,22.1,10.4,31.9,17.2c35.8,24.9,62.5,57.5,79.8,97.6c4.8,11.2,7.1,23,6.6,35.3c-0.9,24.9-1.7,49.9-2.6,75.9c-10.3-9.7-17.8-20.4-21.2-33.1c-4.2-15.7-7.3-31.7-9.8-47.8c-3.7-23.7-7.6-47.2-21-67.7C673.7,254.1,653.7,228.8,629.5,207z M541.7,445.7c-0.7-4.5-1.4-9-2.3-14.7c2.4,1.9,3.8,3.1,5.3,4.3c25.3,21.8,41.5,49.5,52.9,80.5c11.9,32.1,27.4,62.1,51.5,86.9c6.7,6.9,14.1,13,20.5,18.8C603.1,581,554.3,526.6,541.7,445.7z M663.5,513.3c-7.6-22-13.2-44.6-19.8-67c0.5-0.2,1-0.5,1.5-0.7c4.4,12.8,8.4,25.7,13.3,38.3c4.3,11.1,9,22.1,14.6,32.6c16.1,30.4,40.6,49.9,74.7,57.3c20.4,4.4,40.6,9.7,60.6,15.8c15.8,4.8,30.1,13.3,42.7,25.6c-9.9-2.2-18.9-4.7-28-6.3c-18.3-3.1-36.9-5.1-55.1-8.6C717.1,590.5,680.6,563.1,663.5,513.3z M845.9,598.8c8.2,5.9,14.2,13,18.5,21.6C858.3,613.3,852.3,606.3,845.9,598.8z M815.7,815.2c0.6-2,1-3.6,1.6-5.2c12-35.5,6.3-68.9-12.5-100.5c-6.3-10.6-15.8-18.3-26.4-24.3c-19.9-11.2-40.1-21.8-60.1-32.9c-10.4-5.8-20.5-12.1-30.7-18.2c0.3-0.4,0.5-0.7,0.8-1.1c20.3,11.3,42.1,18.2,64.6,23.4c16.2,3.8,32.5,7.1,48.6,11.3c20,5.2,38.5,13.3,52.3,29.8c6.7,8,11.7,16.8,14.9,26.8c0.9,2.8,0.5,4.5-2.4,5.8c-7.6,3.7-15.1,7.6-22.4,12.1c8.8-2.4,17.6-4.9,26.5-7.3C877.6,765.8,850.1,806.6,815.7,815.2z M919,677.3c-0.5,1-1.1,1.9-1.2,2.1c-6.9-10.7-13.4-21.8-20.8-32.1c-4.2-5.9-10.1-10.6-15.1-16c-1.1-1.2-2.4-2.8-2.5-4.3c-2.1-29.7-18.2-51-41.1-68.1c-19.8-14.8-42.1-25-65.5-32.5c-15.6-5-27.7-14.3-37.7-26.8c-15.5-19.3-26.5-41.1-36.6-63.4c-3.5-7.7-6.3-15.6-9.4-23.4c0.4-0.2,0.7-0.4,1.1-0.5c0.6,0.6,1.2,1.2,1.7,1.9c13,18.7,29.9,32.6,50.6,42.1c1.8,0.8,4,2.6,4.5,4.4c8.7,35.2,31.4,59,62.4,75.2c14.6,7.6,30.8,12.3,46.4,18.1c9,3.4,18.3,6.1,27.2,9.7c26.2,10.6,39.8,31.3,44.7,58.2C931.2,641.1,927.7,659.7,919,677.3z"/>
  <path d="M96.5,499.1c10.5-3.5,21.2-6.4,31.7-10.1c18.8-6.7,29.5-20.8,34.3-39.7c2.7-10.6,2.4-21.3,0.4-32.1c-3.7-19.7-11.7-37.7-21.3-55c-16.4-29.5-17.8-60.1-9.2-91.9c5.7-20.9,15.2-40.2,24.9-59.5c1.7-3.4,3-7.1,4.5-10.6c-1.2-0.1-1.8,0.2-2.1,0.7c-14.3,19.1-27.2,39.1-35.8,61.5c-8.2,21.4-11.5,43.4-7.4,66.3c3.1,17.6,10.9,33.4,18.6,49.2c5.3,11,11.1,22.1,13.9,33.8c6.1,25.8-3,45-25.9,56c-6.9,3.3-14.1,5.9-21.2,8.8c-9.7,3.9-19.7,7.1-29,11.6c-11.8,5.7-19.2,15.5-22,28.4c-0.2,0.7-0.6,1.4-1,2.1c0,7.2,0,14.4,0,21.6c1.4,6.3,2.7,12.7,4.1,19c1-1.9,0.9-3.7,1-5.5c0.6-12.1,2.9-23.6,10-33.8C72.6,508.7,84.1,503.2,96.5,499.1z"/>
  <path d="M581,822.1c-5.1-4.7-10.2-9.8-16.2-13.3c-67.7-39.1-138.5-46.3-212.2-19.1c-3.8,1.4-6.8,1.4-9.9-1c-5.5-4.1-11-8.2-16.5-12.3c-21.5-15.9-42.8-32.1-64.6-47.7c-5.9-4.2-12.9-6.9-19.6-9.8c-4.6-2-8.4-0.6-12,3.6c-20.7,24.8-27.3,52.3-18.1,83.7c4.2,14.3,7.1,29.1,9.4,43.9c1.1,7-0.5,14.5-0.9,21.9c3.2-0.8,6.5-1.8,9.8-2.4c7.2-1.2,14.5-3.6,21.6-3c40.1,3.1,79.7,9.7,118.2,21.5c32.8,10,64.3,23.2,91,45.3c11.2,9.3,20.9,20.4,31.2,30.6c5-6.6,10.7-14.2,16.4-21.6c18.9-24.4,38.2-48.5,56.7-73.2c7.1-9.5,12.6-20.1,18.5-30.4C587.4,832.9,586.1,826.9,581,822.1z"/>
  <path d="M259.8,550.5c17.4,5.4,34.7,11.6,52.1,17.1c2.1,0.7,5.2,0.1,7.2-1c16.7-9,27.8-22.8,34.4-40.5c0.5-1.4,1.2-2.8,1.7-4.2c0.5,0.1,1.1,0.2,1.6,0.3c-0.9,16.1-1.7,32.3-2.5,48.3c13.5-1.1,23.6-8.1,27.6-20.3c6.2-18.7,3.2-37.6,0.5-57.1c-9.5,7.4-18.3,14.4-27.3,21c-13.6,10.1-28.2,18.3-45.2,21.3c-12.9,2.3-24.5-6.6-24.8-19.7c-0.2-9.1-3.4-14.6-12.6-17c-6.7-1.8-9.2-6.5-8.9-13.4c0.1-1.6,0.3-3.2,0.6-5.4c-1-0.4-1.7-0.7-2.5-1c-9.5-3.5-13-9.2-11.9-19.2c0.2-1.9,0.6-3.9,0.5-5.8c-0.1-4.3-1.4-7.4-6.5-8.7c-5.6-1.4-10.9-4.2-16.3-6.5c-3.8-1.7-4.9-4.6-4.1-8.8c1.9-10.1,3.1-20.3,5.3-30.4c4-18.9,1.5-36.1-8-53.3c-8.8-15.9-15.7-33-22.4-49.9c-10.9-27.6-21.4-55.4-27.5-84.6c-0.5-2.3-0.9-4.5-1.5-7.9c-11.1,20.1-21.6,39.1-28.5,59.8c-2.9,8.6-5.5,17.5-6.7,26.5c-3.5,26.2,1.1,51.6,12.2,75.4c9.4,20.1,21,39.1,31.1,58.8c4.6,8.9,8.9,18.2,11.6,27.8c3.7,13.4-1.1,23.6-13.4,29.8c-7.9,4-16.6,6.6-25.1,9.4c-12.7,4.1-25.9,6.9-38.3,11.8c-31.2,12.5-46.4,36.8-44.7,70.2c0.9,19.1,7.6,37,13.1,55c4.3,14,8.9,28.1,11.2,42.4c2.6,16.5-4.9,25.2-21.5,28.7c-3.7,0.8-7.4,1.2-11.7,1.9c19.2,13.4,57.5,7.3,67.5-23.4c3.2-9.8,4.3-19.9,2.4-30c-2.7-14.2-6.5-28.3-9.4-42.5c-4.4-21.8,0.6-34.1,20.3-44.2c14.1-7.3,29.5-12.2,44.3-18.1c1.1-0.4,2.2-0.6,3.2-0.8c-9.4,5.6-19.2,10.6-28,17c-25.2,18.1-34.8,43-29.1,73.3c2.5,13.1,6.9,25.8,10.2,38.8c5.9,23.4-0.9,39.4-21.6,51.9c-2.7,1.6-5.4,3.1-8,4.6c10.8,0,21.5,0,32.6,0c0.3-4.2,0.5-7.6,0.7-11c2-35.9,4.1-71.7,6-107.6c0.9-16.9,6.2-31.9,17-44.9c9.2-11.1,21-18,35.3-20.2C221.8,540.9,241,544.6,259.8,550.5z M253.3,507.2c-2.5,10.2-20.6,21.9-34.5,23.5C229.7,523.4,241.9,515,253.3,507.2z"/>
</g>
</svg>